<svg width="49" height="49" viewBox="0 0 49 49" fill="none" xmlns="http://www.w3.org/2000/svg">
<path d="M23.9997 16.2212L12.2324 24.0009L0 15.8992L23.9997 0L47.9995 15.8992L35.7671 24.0009L23.9997 16.2212Z" fill="url(#paint0_linear)"/>
<path d="M12.2324 24.001L23.9997 31.7807L35.7671 24.001L47.9995 32.1026L23.9997 48.0019L0 32.1205L12.2324 24.001Z" fill="url(#paint1_linear)"/>
<path d="M35.7691 24.0004L24.0018 31.7801L12.2344 24.0004L24.0018 16.2207L35.7691 24.0004Z" fill="url(#paint2_linear)"/>
<path d="M47.998 15.8984V32.1196L35.7656 24.0001L47.998 15.8984Z" fill="url(#paint3_linear)"/>
<path d="M0 32.1196V15.8984L12.2324 24.0001L0 32.1196Z" fill="url(#paint4_linear)"/>
<g opacity="0.9">
<path opacity="0.9" d="M48.0019 15.8984V32.1196L35.7695 24.0001L48.0019 15.8984Z" fill="url(#paint5_linear)"/>
</g>
<g opacity="0.9">
<path opacity="0.9" d="M0 32.1196V15.8984L12.2324 24.0001L0 32.1196Z" fill="url(#paint6_linear)"/>
</g>
<path d="M48.0019 15.8984V32.1196L35.7695 24.0001L48.0019 15.8984Z" fill="url(#paint7_linear)"/>
<path d="M0 32.1196V15.8984L12.2324 24.0001L0 32.1196Z" fill="url(#paint8_linear)"/>
<path d="M35.7652 24.0004L23.9979 31.7801L12.2305 24.0004L23.9979 16.2207L35.7652 24.0004Z" fill="url(#paint9_linear)"/>
<path d="M23.9997 48.0016L0 32.1202L12.2324 24.0186L23.9997 31.7983V48.0016Z" fill="url(#paint10_linear)"/>
<path d="M24 31.7807L35.7674 24.001L47.9997 32.1026L24 48.0019V31.7807Z" fill="url(#paint11_linear)"/>
<path d="M23.9997 16.2212L12.2324 24.0009L0 15.8992L23.9997 0L47.9995 15.8992L35.7671 24.0009L23.9997 16.2212Z" fill="url(#paint12_linear)"/>
<defs>
<linearGradient id="paint0_linear" x1="37.7811" y1="45.2977" x2="17.3815" y2="1.77176" gradientUnits="userSpaceOnUse">
<stop offset="0.0773715" stop-color="#B2F6FF"/>
<stop offset="0.3326" stop-color="#74E6ED"/>
<stop offset="0.7185" stop-color="#3639A4"/>
<stop offset="0.9997" stop-color="#3639A4"/>
</linearGradient>
<linearGradient id="paint1_linear" x1="31.5491" y1="48.2187" x2="11.1493" y2="4.69271" gradientUnits="userSpaceOnUse">
<stop offset="0.0773715" stop-color="#B2F6FF"/>
<stop offset="0.3326" stop-color="#74E6ED"/>
<stop offset="0.7185" stop-color="#3639A4"/>
<stop offset="0.9997" stop-color="#3639A4"/>
</linearGradient>
<linearGradient id="paint2_linear" x1="34.667" y1="46.7577" x2="14.2674" y2="3.23178" gradientUnits="userSpaceOnUse">
<stop offset="0.0773715" stop-color="#B2F6FF"/>
<stop offset="0.3326" stop-color="#74E6ED"/>
<stop offset="0.7185" stop-color="#3639A4"/>
<stop offset="0.9997" stop-color="#3639A4"/>
</linearGradient>
<linearGradient id="paint3_linear" x1="50.8849" y1="39.1548" x2="30.4851" y2="-4.37117" gradientUnits="userSpaceOnUse">
<stop offset="0.0773715" stop-color="#B2F6FF"/>
<stop offset="0.3326" stop-color="#74E6ED"/>
<stop offset="0.7185" stop-color="#3639A4"/>
<stop offset="0.9997" stop-color="#3639A4"/>
</linearGradient>
<linearGradient id="paint4_linear" x1="18.4439" y1="54.3599" x2="-1.95587" y2="10.834" gradientUnits="userSpaceOnUse">
<stop offset="0.0773715" stop-color="#B2F6FF"/>
<stop offset="0.3326" stop-color="#74E6ED"/>
<stop offset="0.7185" stop-color="#3639A4"/>
<stop offset="0.9997" stop-color="#3639A4"/>
</linearGradient>
<linearGradient id="paint5_linear" x1="41.887" y1="17.2226" x2="41.887" y2="47.5002" gradientUnits="userSpaceOnUse">
<stop stop-color="white" stop-opacity="0"/>
<stop offset="0.9997" stop-color="white"/>
</linearGradient>
<linearGradient id="paint6_linear" x1="6.11684" y1="17.2226" x2="6.11684" y2="47.5002" gradientUnits="userSpaceOnUse">
<stop stop-color="white" stop-opacity="0"/>
<stop offset="0.9997" stop-color="white"/>
</linearGradient>
<linearGradient id="paint7_linear" x1="41.887" y1="17.2226" x2="41.887" y2="47.5002" gradientUnits="userSpaceOnUse">
<stop stop-color="white" stop-opacity="0"/>
<stop offset="0.9997" stop-color="white"/>
</linearGradient>
<linearGradient id="paint8_linear" x1="6.11684" y1="17.2226" x2="6.11684" y2="47.5002" gradientUnits="userSpaceOnUse">
<stop stop-color="white" stop-opacity="0"/>
<stop offset="0.9997" stop-color="white"/>
</linearGradient>
<linearGradient id="paint9_linear" x1="23.9988" y1="14.9456" x2="23.9988" y2="33.5146" gradientUnits="userSpaceOnUse">
<stop stop-color="white" stop-opacity="0"/>
<stop offset="0.9997" stop-color="white"/>
</linearGradient>
<linearGradient id="paint10_linear" x1="10.2439" y1="30.3244" x2="33.4067" y2="51.7309" gradientUnits="userSpaceOnUse">
<stop stop-color="white" stop-opacity="0"/>
<stop offset="0.9997" stop-color="white"/>
</linearGradient>
<linearGradient id="paint11_linear" x1="44.0646" y1="26.6344" x2="22.9326" y2="40.5943" gradientUnits="userSpaceOnUse">
<stop stop-color="white" stop-opacity="0"/>
<stop offset="0.9997" stop-color="white"/>
</linearGradient>
<linearGradient id="paint12_linear" x1="24.0007" y1="10.5066" x2="24.0007" y2="31.1757" gradientUnits="userSpaceOnUse">
<stop stop-color="white" stop-opacity="0"/>
<stop offset="0.9997" stop-color="white"/>
</linearGradient>
</defs>
</svg>
